# xmcd
#
# Track frame offsets: 
#        150
#        17335
#        36725
#
# Disc length: 783 seconds
#
# Revision: 0
# Processed by: cddbd v1.5.2PL0 Copyright (c) Steve Scherf et al.
# Submitted via: ExactAudioCopy v1.0b3
#
DISCID=1d030d03
DTITLE=Truth Hurts - Addictive (Featuring Rakim)
DYEAR=2002
DGENRE=R&B
TTITLE0=Addictive (Featuring Rakim) - Album Version
TTITLE1=Addictive (Featuring Rakim) - Remix Radio Edit
TTITLE2=Benefit Of The Doubt (Featuring Shaunta)
EXTD=
EXTT0=
EXTT1=
EXTT2=
PLAYORDER=
